<svg viewBox="0 0 2134 2134" xmlns="http://www.w3.org/2000/svg" xml:space="preserve" style="fill-rule:evenodd;clip-rule:evenodd;stroke-linejoin:round;stroke-miterlimit:2">
  <circle cx="1066.7" cy="1066.7" r="1066.7"/>
    <circle cx="765.5" cy="576.2" r="36.3" style="fill:#fff"/>
    <circle cx="903.5" cy="648.7" r="36.3" style="fill:#fff"/>
    <circle cx="903.5" cy="415.5" r="36.3" style="fill:#fff"/>
    <circle cx="693" cy="259" r="36.3" style="fill:#fff"/>
    <circle cx="788.3" cy="713.8" r="36.3" style="fill:#fff"/>
    <circle cx="1465.7" cy="176.4" r="36.3" style="fill:#fff"/>
    <circle cx="205.1" cy="1482.8" r="36.3" style="fill:#fff"/>
    <circle cx="1439.4" cy="1954.8" r="36.3" style="fill:#fff"/>
    <circle cx="971.1" cy="95.8" r="36.3" style="fill:#fff"/>
    <path d="M2100 1098c4 0-66-368-87-347-52 53-179 144-252 144s-112-148-188-138c-130 18-132 118-182 143-24 12-119 52-130 62-1 1-296 32-379 16-87-18-206-137-296-91-47 23-62 95-80 133-7 14 87 110 113 136 95 95 725 88 725 90 0 25-297 226-838 249-111 5 152 192 216 192 153 0 329-52 484-71 79-10 373 0 432 6 59 7 125 13 181 34 80 29 89-25 141-68" style="fill:#fff"/>
    <path d="M1304 1262c-95-1-343-5-517-33-49-8-93-18-126-30-24-9-42-19-54-31-21-21-87-88-109-122-5-8-8-14-9-19-1-6 0-11 2-14 11-23 21-58 37-88 13-23 29-43 50-53 41-21 86-13 133 7 61 26 123 72 175 83a2092 2092 0 0 0 369-16l27-15 101-46c18-9 28-29 42-50 26-39 61-83 145-94 24-4 45 5 65 20 16 14 31 32 46 51 14 17 27 35 42 48 12 11 24 19 38 19 27 0 62-14 97-34 56-30 113-75 143-105 4-4 8-6 12-6 4-1 10 0 15 5 3 3 7 8 11 16 5 12 12 32 19 58 25 91 55 248 59 278 1 10-2 15-2 16-5 7-10 8-16 8-9-1-16-9-15-18v-2c-4-30-34-183-58-273l-15-46c-34 31-86 70-137 98-41 23-82 38-113 38-18 0-35-7-50-19-20-15-38-38-56-60-13-17-27-34-41-46-12-9-25-15-39-13-71 10-100 47-122 79-18 27-33 51-55 62l-101 46c-12 6-21 10-24 13l-8 5-10 1c-50 6-300 29-376 14-45-9-98-43-151-70-47-24-94-43-135-23-20 11-32 32-43 54-10 24-18 49-27 67l12 19c27 34 78 85 96 104 9 8 23 16 42 23 31 12 73 21 120 28 187 30 462 32 533 33h19c15 1 16 15 16 17 0 3-2 9-7 16-6 7-18 18-36 31-94 66-374 200-812 219l-10 2 1 3c5 11 16 23 30 36 39 37 104 80 152 103 18 8 33 14 43 14 153 0 327-52 482-71 79-10 377 0 436 7 60 6 127 13 185 34 19 7 34 9 46 6 11-3 20-10 28-19 15-15 29-34 50-52a17 17 0 0 1 22 26c-21 17-34 35-48 49a94 94 0 0 1-44 28c-17 5-38 4-66-7-55-20-119-26-177-32-58-7-350-17-428-7-156 20-332 72-486 72-15 0-40-9-69-24-62-31-143-90-175-131-8-11-14-22-15-30-2-10 0-18 4-24 6-8 17-16 38-16 428-19 702-149 794-214l5-3Zm783-174c4-4 9-7 15-6-5-1-11 0-15 6Z" style="fill:#fff"/>
    <circle cx="1541.2" cy="865.4" r="25"/>
    <circle cx="1066.7" cy="1066.7" r="1066.7" style="fill-opacity:0" fill="none"/>
    <path d="M1067 0a1067 1067 0 1 1-1 2134 1067 1067 0 0 1 1-2134Zm0 83a984 984 0 1 0 1 1968 984 984 0 0 0-1-1968Z"/>
</svg>
